<?xml version="1.0" encoding="utf-8"?>
<!-- Generator: Adobe Illustrator 21.1.0, SVG Export Plug-In . SVG Version: 6.00 Build 0)  -->
<svg version="1.1" id="Layer_1" xmlns="http://www.w3.org/2000/svg" xmlns:xlink="http://www.w3.org/1999/xlink" x="0px" y="0px"
	 viewBox="0 0 200 63" style="enable-background:new 0 0 200 63;" xml:space="preserve">
<style type="text/css">
	.st0{fill:#221B3E;}
</style>
<g>
	<path class="st0" d="M0.9,3.6h13.5c5.1,0,8.4,1,9.4,6.6c0.8,3.3,0.5,5.4-2.8,5.9v0.3c3.8,0.3,5.1,2.6,5.6,5.9
		c1.3,6.4-1.5,7.1-6.9,7.1H6.5L0.9,3.6z M10.1,13.8h4.9c2.3,0,2.8-0.5,2.6-2.6c-0.5-1.5-0.8-2-2.8-2H9L10.1,13.8z M12.1,23.5h5.1
		c2.3,0,3.1-0.5,2.6-2.6c-0.5-2-1.3-2.6-3.6-2.6h-5.1L12.1,23.5z"/>
	<path class="st0" d="M27.4,19.9l-1.5-7.4c-1.8-7.9,3.1-9.4,10-9.4s12.3,1.5,14,9.4l1.5,7.4c1.8,7.9-3.1,9.4-10,9.4
		S29.2,27.9,27.4,19.9z M44,19.2l-1.3-5.9c-0.8-3.6-2-4.1-5.6-4.1c-3.6,0-4.6,0.3-3.8,4.1l1,5.9c1,3.8,2,4.3,5.6,4.3
		C43.8,23.5,44.8,23,44,19.2z"/>
	<path class="st0" d="M52.6,19.9L51,12.5c-1.8-7.9,3.1-9.4,10-9.4s12.3,1.5,14,9.4l1.3,7.4c1.8,7.9-3.1,9.4-10,9.4
		C59.5,29.4,54.4,27.9,52.6,19.9z M69.2,19.2l-1.3-5.6c-0.8-3.8-2-4.1-5.6-4.1s-4.6,0.3-3.8,4.1l1.3,5.9c1,3.8,2,4.3,5.6,4.3
		C68.9,23.5,69.9,23,69.2,19.2z"/>
	<path class="st0" d="M83.3,13h2L90,3.3h8.4L92,15.9l12.5,13h-8.4l-9.4-10.2h-2l2,10.2h-6.9L74.4,3.6h6.9L83.3,13z"/>
	<path class="st0" d="M122.1,29.1h-6.9l-5.4-25.5h11.5l11.5,19.7h0.3l-4.3-19.7h6.9l5.4,25.8h-11.7L117.8,9.7h-0.3L122.1,29.1z"/>
	<path class="st0" d="M140.5,19.9l-1.5-7.4c-1.8-7.9,3.1-9.4,10-9.4s12.3,1.5,14,9.4l1.3,7.4c1.8,7.9-3.1,9.4-10,9.4
		C147.4,29.4,142.1,27.9,140.5,19.9z M157.1,19.2l-1.3-5.9c-0.8-3.8-2-4.1-5.6-4.1c-3.6,0-4.9,0.5-4.1,4.3l1.3,5.9
		c1,3.8,2,4.3,5.6,4.3S157.9,23,157.1,19.2z"/>
	<path class="st0" d="M192.4,3.6h6.9L199,29.4h-10l-6.9-16.1h-0.3l-0.3,16.1h-9.7L160.7,3.6h6.9l7.9,19.9h0.3l0.5-19.9h7.1l8.9,19.9
		h0.3L192.4,3.6z"/>
</g>
<g>
	<path class="st0" d="M6.3,43.8l-2-9.6h6.4l0.4,1.8H6.6l0.5,2.4h4.1l0.4,1.7H7.5l0.8,3.7H6.3z"/>
	<path class="st0" d="M15.3,40.2l0.8,3.6h-2l-2-9.6h4c2,0,3.6,1.1,4,3.1c0.3,1.5-0.3,2.5-1.6,2.8l3.3,3.7h-2.3l-3.1-3.6H15.3z
		 M15,38.6h1.8c1,0,1.4-0.5,1.2-1.3c-0.2-0.8-0.8-1.3-1.8-1.3h-1.8L15,38.6z"/>
	<path class="st0" d="M27,44c-2.7,0-5-2.1-5.6-5c-0.6-2.9,0.8-5,3.5-5s5,2.1,5.6,5C31.1,41.9,29.7,44,27,44z M25.3,35.8
		c-1.5,0-2.2,1.3-1.8,3.2s1.7,3.2,3.2,3.2c1.5,0,2.3-1.3,1.9-3.2S26.8,35.8,25.3,35.8z"/>
	<path class="st0" d="M37.2,43.8l-3.7-6.3l1.3,6.3h-1.9l-2-9.6h2.4l4,6.8l1.1-6.8h2.3l2,9.6h-1.9l-1.3-6.3l-1,6.3H37.2z"/>
	<path class="st0" d="M12.6,52.5c0.3,0.9,0.8,1.4,1.7,1.4c1,0,1.4-0.6,1.1-1.8l-1.3-6.1h2l1.3,6.1c0.5,2.4-0.6,3.6-2.7,3.6
		c-2.2,0-3.6-1.3-4.2-3.2H12.6z"/>
	<path class="st0" d="M18.9,51.7l-1.2-5.7h2l1.2,5.5c0.3,1.6,1.2,2.4,2.5,2.4s1.8-0.8,1.5-2.4l-1.2-5.5h2l1.2,5.7
		c0.6,2.6-0.7,4-3.1,4C21.3,55.7,19.4,54.3,18.9,51.7z"/>
	<path class="st0" d="M30.2,52.8c0.4,0.8,1.2,1.2,2.2,1.2c1,0,1.5-0.4,1.4-1.2c-0.1-0.6-0.5-0.9-1.4-1.1l-1.8-0.4
		c-1.4-0.3-2.7-1-3-2.6c-0.4-1.7,0.8-3,2.8-3c2.2,0,3.7,1.2,4.4,2.8h-2c-0.4-0.6-1-1.1-2-1.1c-0.9,0-1.4,0.4-1.3,1.1
		c0.1,0.5,0.5,0.9,1.3,1l1.8,0.4c1.6,0.4,2.8,1.3,3.1,2.7c0.4,1.9-0.9,3-2.9,3c-2.1,0-3.9-1.1-4.6-2.9H30.2z"/>
	<path class="st0" d="M34.9,45.9h8.2l0.4,1.8h-3.1l1.7,7.9h-2l-1.7-7.9h-3.1L34.9,45.9z"/>
</g>
<g>
	<path class="st0" d="M148.4,43.8h-2l-2-9.6h2L148.4,43.8z"/>
	<path class="st0" d="M158.3,43.8h-1.6l-5.9-6.4l1.4,6.4h-1.9l-2-9.6h1.9l5.5,6.1l-1.3-6.1h1.9L158.3,43.8z"/>
	<path class="st0" d="M162.1,34c2.3,0,3.9,1.3,4.7,3.3h-2c-0.5-0.9-1.2-1.5-2.3-1.5c-1.5,0-2.2,1.3-1.8,3.2c0.4,1.8,1.6,3.2,3.1,3.2
		c1.1,0,1.6-0.6,1.7-1.5h2c0.1,1.9-1.1,3.3-3.3,3.3c-2.6,0-4.9-2-5.5-5C158,36,159.5,34,162.1,34z"/>
	<path class="st0" d="M169.6,41.4c0.7,0,1.3,0.5,1.5,1.2c0.1,0.7-0.3,1.3-1,1.3c-0.7,0-1.3-0.5-1.5-1.3
		C168.5,41.9,168.9,41.4,169.6,41.4z"/>
	<path class="st0" d="M182.6,41.1c0.4,1.8-0.6,2.7-2.6,2.7h-4l-2-9.6h3.7c2,0,3.4,0.9,3.8,2.6c0.2,1-0.2,1.8-0.8,2
		C181.6,39.1,182.4,40,182.6,41.1z M178.3,38.1c1,0,1.4-0.4,1.2-1.1s-0.7-1.1-1.7-1.1h-1.6l0.5,2.3H178.3z M177.6,42.1h1.9
		c0.9,0,1.3-0.5,1.2-1.2c-0.2-0.8-0.8-1.2-1.7-1.2H177L177.6,42.1z"/>
	<path class="st0" d="M184.6,43.8l-2-9.6h6.4l0.4,1.8H185l0.5,2.4h4.1l0.4,1.7h-4.1l0.8,3.7H184.6z"/>
</g>
<g>
	<path class="st0" d="M133.5,34.9l0.6-1.1l1.6,0.9v-1.9h1.3v1.9l1.6-0.9l0.6,1.1l-1.6,0.9l1.6,0.9l-0.6,1.1l-1.6-0.9v1.9h-1.3v-1.9
		l-1.6,0.9l-0.6-1.1l1.6-0.9L133.5,34.9z"/>
</g>
<g>
	<path class="st0" d="M60.8,41.4c-0.3-1.3-0.6-2-1.1-2.5c-0.5-0.4-1.2-0.6-2.3-0.6c-2.5,0-2.9,0.6-2.4,3.1l0.6,2.7h6.6l1.1,5h-6.6
		c0.5,2.2,0.5,3.1-0.8,3.8l0,0.2h14.3l1.2,5.5H49.5l-1.2-5.5c2.4,0,1.9-1.9,1.4-4h-3.1l-1.1-5h3.1l-0.8-3.7
		c-1.1-5.6,0.3-7.8,8.3-7.8c7.8,0,9.9,1.8,11.1,7.6l0.3,1.2H60.8z"/>
	<path class="st0" d="M93.8,58.7H73.3l-1.1-5.4c-1.3-6-0.2-7,7.2-8.8c4.2-1,4.5-1,4-3.6c-0.6-2.6-1.5-2.9-4.2-2.9
		c-3.1,0-3.6,0.2-3,3l0.3,1.3h-6.6l-0.3-1.3c-1.5-7,1.8-8.4,8.4-8.4c6.1,0,10.4,0.9,11.9,8.1c1.2,5.8-0.2,6.9-5.3,8.4
		c-4.9,1.4-6.6,0.7-5.8,4.2h13.9L93.8,58.7z"/>
	<path class="st0" d="M105.7,40.7c-0.6-2.6-1.6-2.7-4.2-2.7c-3.1,0-4,0.1-3.3,3.6l0.9,4.1h0.1c0.3-2.7,1.9-2.7,4.1-2.7
		c6.1,0,9.4,0.7,10.8,7.4c1.5,7.2-1.5,8.5-8.1,8.5c-8.5,0-11-1.7-12.9-10.5l-1.4-6.5c-1.7-8,1.2-9.4,8.6-9.4c5.4,0,10.2,0.3,11.6,7
		l0.2,1.1H105.7z M100.1,50.6c0.5,2.4,1,2.9,3.9,2.9c3.7,0,4.1-0.2,3.5-3c-0.5-2.2-1.6-2.1-4.6-2.1C100.4,48.3,99.7,48.6,100.1,50.6
		z"/>
	<path class="st0" d="M121.6,50.8c0.6,2.6,1.6,2.7,4.2,2.7c3.1,0,4-0.1,3.3-3.6l-0.9-4.1h-0.1c-0.3,2.7-1.9,2.7-4.1,2.7
		c-6.1,0-9.4-0.7-10.8-7.4c-1.5-7.2,1.5-8.5,8.1-8.5c8.5,0,11,1.7,12.9,10.5l1.4,6.5c1.7,8-1.2,9.4-8.6,9.4c-5.4,0-10.2-0.3-11.6-7
		l-0.2-1.1H121.6z M127.1,40.8c-0.5-2.4-1-2.9-3.9-2.9c-3.7,0-4.1,0.2-3.5,3c0.5,2.2,1.6,2.1,4.6,2.1
		C126.9,43.1,127.6,42.8,127.1,40.8z"/>
</g>
<g>
	<path class="st0" d="M144.4,46.3l1.7,3.7l0.1-3.7h1.1l-0.2,5.5h-1l-1.7-3.6l-0.2,3.6h-1l-2.6-5.5h1.1l1.7,3.7l0.2-3.7H144.4z"/>
	<path class="st0" d="M152.5,46.3l1.2,5.5h-1.1l-0.5-2.3h-2.4l0.5,2.3H149l-1.2-5.5h1.1l0.5,2.2h2.4l-0.5-2.2H152.5z"/>
	<path class="st0" d="M155.8,51.7h-1.1l-1.2-5.5h1.1L155.8,51.7z"/>
	<path class="st0" d="M155.7,46.3h1.1l0.9,4.5h2.5l0.2,1h-3.6L155.7,46.3z"/>
	<path class="st0" d="M163.7,46.3l0.2,1h-2.5l0.3,1.2h2.3l0.2,1h-2.3l0.3,1.3h2.5l0.2,1h-3.6l-1.2-5.5H163.7z"/>
	<path class="st0" d="M168,50.2c0.2,0.5,0.7,0.7,1.2,0.7c0.5,0,0.8-0.2,0.8-0.7c-0.1-0.3-0.3-0.5-0.8-0.6l-1-0.2
		c-0.8-0.2-1.5-0.6-1.7-1.5c-0.2-1,0.4-1.7,1.6-1.7c1.2,0,2.1,0.7,2.4,1.6h-1.1c-0.2-0.4-0.6-0.6-1.1-0.6c-0.5,0-0.8,0.2-0.7,0.6
		c0.1,0.3,0.3,0.5,0.7,0.6l1,0.2c0.9,0.2,1.6,0.7,1.7,1.5c0.2,1.1-0.5,1.7-1.6,1.7c-1.2,0-2.2-0.6-2.6-1.6H168z"/>
	<path class="st0" d="M170.7,46.3h4.6l0.2,1h-1.7l0.9,4.5h-1.1l-0.9-4.5h-1.7L170.7,46.3z"/>
	<path class="st0" d="M179.1,51.8c-1.5,0-2.8-1.2-3.1-2.8c-0.3-1.6,0.4-2.8,1.9-2.8s2.8,1.2,3.1,2.8
		C181.4,50.6,180.6,51.8,179.1,51.8z M178.1,47.2c-0.8,0-1.2,0.7-1,1.8s0.9,1.8,1.8,1.8c0.9,0,1.3-0.7,1-1.8S179,47.2,178.1,47.2z"
		/>
	<path class="st0" d="M183.5,46.2c1.3,0,2.2,0.8,2.6,1.9H185c-0.3-0.5-0.7-0.8-1.3-0.8c-0.9,0-1.2,0.8-1,1.8c0.2,1,0.9,1.8,1.7,1.8
		c0.6,0,0.9-0.3,1-0.8h1.1c0,1.1-0.6,1.9-1.8,1.9c-1.4,0-2.7-1.1-3.1-2.8C181.3,47.3,182.1,46.2,183.5,46.2z"/>
	<path class="st0" d="M188.1,48.7l1.5-2.5h1.3l-1.5,2.4l2.8,3h-1.3l-2.1-2.2l-0.4,0.6l0.3,1.6h-1.1l-1.2-5.5h1.1L188.1,48.7z"/>
	<path class="st0" d="M193.1,50.2c0.2,0.5,0.7,0.7,1.2,0.7c0.5,0,0.8-0.2,0.8-0.7c-0.1-0.3-0.3-0.5-0.8-0.6l-1-0.2
		c-0.8-0.2-1.5-0.6-1.7-1.5c-0.2-1,0.4-1.7,1.6-1.7c1.2,0,2.1,0.7,2.4,1.6h-1.1c-0.2-0.4-0.6-0.6-1.1-0.6c-0.5,0-0.8,0.2-0.7,0.6
		c0.1,0.3,0.3,0.5,0.7,0.6l1,0.2c0.9,0.2,1.6,0.7,1.7,1.5c0.2,1.1-0.5,1.7-1.6,1.7c-1.2,0-2.2-0.6-2.6-1.6H193.1z"/>
	<path class="st0" d="M158.7,52.9h1.1l0.9,4.5h2.5l0.2,1h-3.6L158.7,52.9z"/>
	<path class="st0" d="M165.9,52.9l3.2,5.5H168l-0.8-1.3h-2l-0.2,1.3h-1.1l0.9-5.5H165.9z M165.4,56.1h1.3l-1-1.8L165.4,56.1z"/>
	<path class="st0" d="M170.2,56.8c0.2,0.5,0.7,0.7,1.2,0.7c0.5,0,0.8-0.2,0.8-0.7c-0.1-0.3-0.3-0.5-0.8-0.6l-1-0.2
		c-0.8-0.2-1.5-0.6-1.7-1.5c-0.2-1,0.4-1.7,1.6-1.7c1.2,0,2.1,0.7,2.4,1.6h-1.1c-0.2-0.4-0.6-0.6-1.1-0.6c-0.5,0-0.8,0.2-0.7,0.6
		c0.1,0.3,0.3,0.5,0.7,0.6l1,0.2c0.9,0.2,1.6,0.7,1.7,1.5c0.2,1.1-0.5,1.7-1.6,1.7c-1.2,0-2.2-0.6-2.6-1.6H170.2z"/>
	<path class="st0" d="M172.8,52.9h4.6l0.2,1h-1.7l0.9,4.5h-1.1l-0.9-4.5H173L172.8,52.9z"/>
</g>
</svg>
