<svg viewBox="0 0 145 107" preserveAspectRatio="xMinYMin meet" version="1.1" xmlns="http://www.w3.org/2000/svg" xmlns:xlink="http://www.w3.org/1999/xlink">
    <title>Snowbombing Flag</title>
    <g id="Page-1" stroke="none" stroke-width="1" fill="none" fill-rule="evenodd">
        <g id="SB-Flag-Icon">
            <g id="Flag" transform="translate(3.000000, 0.000000)">
                <path d="M128.474183,22.268093 C123.576851,22.083907 118.695612,21.2642791 114.366186,18.8813721 C110.457517,16.7333023 107.312188,13.8692093 102.764336,13.0357674 C96.4736777,11.8823023 89.7392704,13.5883256 83.1658083,13.569907 C77.6890728,13.5537907 72.0904788,12.0066279 66.9080431,10.3719767 C61.4680951,8.65904651 56.4558015,6.88165116 51.3584369,4.36060465 C46.5047892,1.9615814 43.0030814,0.223325581 37.3171171,0.768976744 C28.8743914,1.58169767 21.1835097,3.79193023 12.9408158,5.50486047 C8.75624044,6.37513953 4.7257126,6.83330233 0.63540511,6.98525581 L19.9879167,98.7812791 C26.8717732,91.9019302 33.2796916,89.4660698 41.3522434,87.1176977 C54.1956709,83.7424884 67.4483592,89.403907 79.9216128,91.1283488 C85.3500647,91.9272558 89.1184818,89.5420465 93.7123178,86.4684419 C95.3976441,85.2965581 97.8716018,83.9612093 100.426032,82.2897209 C102.407957,80.9912093 104.440466,79.9804884 106.19017,79.9275349 C106.937415,79.906814 107.617984,80.0426512 108.254867,80.2636744 C110.47821,81.0349535 112.161237,82.1009302 114.186847,82.3772093 C118.810573,83.0126512 125.37024,78.9260233 130.375636,74.2338837 C124.25512,69.7052093 125.965737,60.0055116 128.524766,54.2635116 C129.258217,52.6219535 131.476961,48.4156047 132.346065,46.8385116 C135.141913,41.7872093 133.350823,39.4756744 133.962415,34.8710233 C134.436054,31.3277442 135.801789,30.2387442 136.565129,27.416093 C136.900815,26.1659302 137.241099,24.9157674 137.579084,23.667907 C137.659556,23.3686047 138.078014,20.9856977 138.310235,20.9235349 C134.999362,21.8168372 132.385152,22.4131395 128.474183,22.268093" id="Fill-41" fill="#735EFF"></path>
                <polyline id="Fill-43" fill="#00FBB1" points="69.7015921 40.5025116 82.6990672 52.9166512 100.205307 49.2122093 83.0692412 45.5630233 96.0391257 33.7705116 79.9101167 39.091186 85.575388 23.060093 73.2906702 36.0267907 69.5797336 18.5452326 65.9354742 35.7067674 54.1588835 22.7147442 59.4723745 38.8678605 43.4629248 33.1926279 56.4121164 45.4939535 38.9541598 49.2122093 56.2120845 52.866 69.7015921 40.5025116"></polyline>
                <polyline id="Fill-44" fill="#FFFFFF" points="69.7084897 40.5025116 43.4583264 64.5433953 59.2539489 59.3355349 53.5909768 75.3666279 65.8733954 62.3953256 69.5866312 79.8814884 73.2285913 62.7176512 85.0051821 75.7096744 79.691691 59.5588605 95.70344 65.2294884 69.7084897 40.5025116"></polyline>
            </g>
        </g>
    </g>
</svg>