<?xml version="1.0" encoding="utf-8"?>
<!-- Generator: Adobe Illustrator 21.0.0, SVG Export Plug-In . SVG Version: 6.00 Build 0)  -->
<svg version="1.1" id="Layer_1" xmlns="http://www.w3.org/2000/svg" xmlns:xlink="http://www.w3.org/1999/xlink" x="0px" y="0px"
	 viewBox="0 0 80 25" style="enable-background:new 0 0 80 25;" xml:space="preserve">
<style type="text/css">
	.st0{fill:none;}
	.st1{fill:#221A3E;}
</style>
<g>
	<polygon class="st0" points="87.5,53.8 0.9,53.8 -10.3,0.9 76.3,0.9 	"/>
	<path class="st1" d="M7.9,11.2H2.6L0.4,0.9h5.3c1.9,0,3,0.6,3.5,2.7C9.5,4.9,9.4,5.8,8.1,6l0,0c1.6,0.1,2,1,2.3,2.4
		C10.9,10.7,10,11.2,7.9,11.2z M5.6,3.2H3.5L3.9,5h1.7C5.7,5,5.8,5,6,5c0.7,0,1-0.1,0.8-1C6.6,3.3,6.3,3.2,5.6,3.2z M6.9,7
		C6.7,7,6.6,7,6.5,7S6.3,7,6.2,7H4.3l0.4,2h1.8c0.4,0,0.9,0,1.2-0.2c0.2-0.2,0.1-0.5,0-0.8C7.6,7.5,7.4,7,6.9,7z"/>
	<path class="st1" d="M19.8,7.7c0.6,3.2-1.3,3.6-4,3.6c-1.3,0-2.5,0-3.7-1.1c-1-0.9-1.4-2.4-1.6-3.5c-0.1-0.7-0.3-1.4-0.4-2.1
		c-0.2-1.1-0.2-2,0.4-2.7c0.8-1,2.3-1,3.6-1c0.5,0,1,0,1.5,0.1c1.2,0.2,2.3,0.9,3,2.1c0.5,0.9,0.7,2.3,0.9,3.3
		C19.6,6.8,19.7,7.2,19.8,7.7z M15.9,3.6c-0.4-0.4-1.2-0.3-1.6-0.3c-1.5,0-1.7,0.4-1.4,2c0.1,0.2,0.1,0.6,0.2,1
		c0.1,0.6,0.3,1.8,0.8,2.3c0.4,0.4,1.3,0.3,1.7,0.3s0.9,0,1.2-0.3c0.5-0.6-0.1-2.5-0.2-3.2C16.5,4.8,16.4,4,15.9,3.6z"/>
	<path class="st1" d="M29.5,7.7c0.6,3.2-1.3,3.6-4,3.6c-1.3,0-2.5,0-3.7-1.1c-1-0.9-1.4-2.4-1.6-3.5c-0.1-0.7-0.3-1.4-0.4-2.1
		c-0.2-1.1-0.2-2,0.4-2.7c0.8-1,2.3-1,3.6-1c0.5,0,1,0,1.5,0.1c1.2,0.2,2.3,0.9,3,2.1C28.8,4,29,5.3,29.2,6.3
		C29.3,6.8,29.4,7.2,29.5,7.7z M25.6,3.6c-0.4-0.4-1.2-0.3-1.6-0.3c-1.5,0-1.7,0.4-1.4,2c0.1,0.4,0.1,0.7,0.2,1.1
		c0.1,0.6,0.3,1.8,0.8,2.3C24,9,24.9,8.9,25.4,8.9c0.4,0,0.9,0,1.2-0.3C27,8,26.5,6.1,26.3,5.3C26.2,4.8,26,4,25.6,3.6z"/>
	<path class="st1" d="M37.3,11.2l-3.6-4h-0.8l0.9,4h-2.6L28.9,0.9h2.6l0.8,3.9h0.8l1.7-3.9H38l-2.4,5l4.8,5.2L37.3,11.2L37.3,11.2z"
		/>
	<path class="st1" d="M49.5,11.2c-1.5-2.6-3-5.2-4.4-7.9H45c0.3,1.3,0.7,2.5,0.9,3.8l0.9,4.1h-2.6L42,0.9h4.4c1.5,2.6,3,5.2,4.4,7.8
		h0.1C50.6,7.5,50.3,6.3,50,5l-0.9-4.1h2.6l2.2,10.2L49.5,11.2L49.5,11.2z"/>
	<path class="st1" d="M63.1,7.7c0.6,3.2-1.3,3.6-4,3.6c-1.3,0-2.5,0-3.7-1.1c-1-0.9-1.4-2.4-1.6-3.5c-0.1-0.7-0.3-1.4-0.4-2.1
		c-0.2-1.1-0.2-2,0.4-2.7c0.8-1,2.3-1,3.6-1c0.5,0,1,0,1.5,0.1c1.2,0.2,2.3,0.9,3,2.1c0.5,0.9,0.7,2.3,0.9,3.3
		C62.9,6.8,63,7.2,63.1,7.7z M59.2,3.6c-0.4-0.4-1.2-0.3-1.6-0.3c-1.5,0-1.7,0.4-1.4,2c0.1,0.4,0.1,0.7,0.2,1.1
		c0.1,0.6,0.3,1.8,0.8,2.3C57.7,9,58.5,8.9,59,8.9c0.4,0,0.9,0,1.2-0.3C60.7,8,60.1,6.1,60,5.4C59.8,4.8,59.7,4,59.2,3.6z"/>
	<path class="st1" d="M76.3,11.2h-3.8L71.2,8c-0.5-1.1-0.9-2.1-1.3-3.2h-0.1c0,2.1,0,4.3-0.1,6.4H66L61.7,0.9h2.6
		c1,2.6,2.1,5.3,3.1,7.9h0.1c0-0.7,0-1.3,0-2c0-2,0.1-3.9,0.2-5.9h2.7l1.7,3.9c0.6,1.3,1.2,2.6,1.7,3.9h0.1c0-0.7-0.1-1.3-0.1-2
		c-0.1-2-0.1-3.9-0.1-5.9h2.6L76.3,11.2z"/>
	<path class="st1" d="M2.8,21.2C2.9,21.7,3.2,22,3.7,22c0.6,0,0.7-0.3,0.6-1l-0.7-3.5h1.1L5.4,21c0.3,1.3-0.4,2-1.5,2
		c-1.2,0-2-0.8-2.3-1.8H2.8z"/>
	<path class="st1" d="M6,20.7l-0.7-3.3h1.1L7,20.6C7.2,21.5,7.7,22,8.4,22s1-0.4,0.8-1.4l-0.7-3.1h1.1l0.7,3.3
		c0.3,1.5-0.4,2.3-1.7,2.3C7.3,23,6.3,22.2,6,20.7z"/>
	<path class="st1" d="M11.9,21.4c0.2,0.5,0.7,0.7,1.2,0.7s0.8-0.2,0.7-0.7c-0.1-0.3-0.3-0.5-0.8-0.6l-1-0.2
		c-0.8-0.2-1.5-0.6-1.6-1.5c-0.2-1,0.4-1.7,1.5-1.7c1.2,0,2,0.7,2.4,1.6h-1.1c-0.2-0.4-0.6-0.6-1.1-0.6s-0.8,0.2-0.7,0.6
		c0.1,0.3,0.3,0.5,0.7,0.6l1,0.2c0.9,0.2,1.5,0.7,1.7,1.5c0.2,1.1-0.5,1.7-1.6,1.7c-1.2,0-2.1-0.6-2.5-1.6H11.9z"/>
	<path class="st1" d="M14.2,17.5h4.5l0.2,1h-1.7l0.9,4.5H17l-0.9-4.5h-1.7L14.2,17.5z"/>
	<path class="st1" d="M29.9,16.6h-2.6c-0.2-0.9-0.3-1.2-1.3-1.2c-0.8,0-1.2,0.1-1,1l0.3,1.3h2.5l0.4,1.8h-2.5
		c0.2,0.7,0.4,1.2-0.3,1.6v0.1h5.4l0.5,2.2H23l-0.5-2.2c0.9,0,0.8-0.4,0.7-1.2l-0.1-0.5H22l-0.4-1.8h1.2l-0.3-1.4
		c-0.1-0.5-0.2-1-0.2-1.6c0.1-1.6,2-1.7,3.3-1.7c0.9,0,2.4,0,3.2,0.8c0.6,0.5,0.9,1.6,1,2.2C29.8,16.3,29.8,16.4,29.9,16.6z"/>
	<path class="st1" d="M35.6,23.5c-0.9,0-1.7,0-2.7-0.5c-1-0.6-1.3-1.5-1.6-2.5h2.5c0.3,1,0.8,0.9,1.6,0.9c1.2,0,1.3-0.2,1.1-1.4
		c-0.3-1.3-0.4-1.6-1.7-1.6c-0.2,0-0.4,0-0.6,0c-0.4,0-0.7,0-0.7,0.5h-2.3L30,13.2h7.1l0.4,2h-4.8l0.4,2l0,0
		c0.1-0.2,0.2-0.4,0.4-0.5c0.4-0.2,1-0.2,1.5-0.2c2.5,0,3.4,1.1,3.9,3.6C39.7,23.2,38.3,23.5,35.6,23.5z"/>
	<path class="st1" d="M47.9,19.9c0.2,1,0.3,1.9-0.2,2.7c-0.7,1-2.1,0.9-3.3,0.9c-1.1,0-2.2-0.1-3.2-0.9c-0.4-0.4-0.7-0.8-0.9-1.3
		c-0.4-0.9-0.6-2.1-0.8-3c-0.1-0.5-0.2-1.1-0.3-1.6c-0.2-1-0.3-1.9,0.2-2.7c0.7-1,2.1-0.9,3.3-0.9c1.1,0,2.2,0,3.2,0.9
		c0.4,0.4,0.7,0.8,0.9,1.3c0.4,1,0.6,2,0.8,3C47.7,18.9,47.8,19.4,47.9,19.9z M44.9,17.3c-0.4-1.7-0.5-2-2-2h-0.2
		c-0.4,0-0.8,0-1,0.4c-0.2,0.3,0,1.1,0.1,1.5l0.2,1.1c0.1,0.3,0.1,0.5,0.2,0.8c0.2,0.7,0.2,2,1.2,2.1c0.3,0,0.6,0,0.9,0
		c1.1,0,1.4-0.3,1.1-1.4c-0.1-0.5-0.2-1-0.3-1.5L44.9,17.3z"/>
	<path class="st1" d="M50.4,17.5h1.8c1.6,0,2.8,1.1,3.2,2.7c0.4,1.7-0.4,2.7-2,2.7h-1.8L50.4,17.5z M53.2,21.9c1,0,1.4-0.7,1.2-1.7
		c-0.2-1.1-0.9-1.7-1.9-1.7h-0.7l0.7,3.5L53.2,21.9L53.2,21.9z"/>
	<path class="st1" d="M58.9,17.5l0.2,1h-2.5l0.3,1.2h2.2l0.2,1h-2.2l0.3,1.3h2.5l0.2,1h-3.5l-1.2-5.5H58.9z"/>
	<path class="st1" d="M61.4,21l0.4,1.9h-1.1l-1.2-5.5h2.1c1.1,0,2,0.6,2.2,1.8c0.2,1.2-0.4,1.8-1.5,1.8C62.3,21,61.4,21,61.4,21z
		 M61.8,18.4h-1l0.3,1.6h1c0.6,0,0.8-0.3,0.7-0.8C62.7,18.8,62.4,18.4,61.8,18.4z"/>
	<path class="st1" d="M67.4,23c-1.5,0-2.7-1.2-3.1-2.8c-0.3-1.6,0.4-2.8,1.9-2.8s2.7,1.2,3.1,2.8C69.6,21.8,68.9,23,67.4,23z
		 M66.4,18.4c-0.8,0-1.2,0.7-1,1.8c0.2,1.1,0.9,1.8,1.7,1.8c0.8,0,1.2-0.7,1-1.8C68,19.1,67.3,18.4,66.4,18.4z"/>
	<path class="st1" d="M70.8,21.4c0.2,0.5,0.7,0.7,1.2,0.7s0.8-0.2,0.7-0.7c-0.1-0.3-0.3-0.5-0.8-0.6l-1-0.2
		c-0.8-0.2-1.5-0.6-1.6-1.5c-0.2-1,0.4-1.7,1.5-1.7c1.2,0,2,0.7,2.4,1.6h-1.1c-0.2-0.4-0.6-0.6-1.1-0.6s-0.8,0.2-0.7,0.6
		c0.1,0.3,0.3,0.5,0.7,0.6l1,0.2c0.9,0.2,1.5,0.7,1.7,1.5c0.2,1.1-0.5,1.7-1.6,1.7c-1.2,0-2.1-0.6-2.5-1.6H70.8z"/>
	<path class="st1" d="M75.8,22.9h-1.1l-1.2-5.5h1.1L75.8,22.9z"/>
	<path class="st1" d="M75.1,17.5h4.5l0.2,1h-1.7L79,23h-1l-1-4.5h-1.7L75.1,17.5z"/>
</g>
</svg>
