<?xml version="1.0" encoding="utf-8"?>
<!-- Generator: Adobe Illustrator 21.0.0, SVG Export Plug-In . SVG Version: 6.00 Build 0)  -->
<svg version="1.1" id="Layer_1" xmlns="http://www.w3.org/2000/svg" xmlns:xlink="http://www.w3.org/1999/xlink" x="0px" y="0px"
	 viewBox="0 0 113 53" style="enable-background:new 0 0 113 53;" xml:space="preserve">
<style type="text/css">
	.st0{fill:#735EFF;}
	.st1{fill:#00FBB1;}
	.st2{fill:#FFFFFF;}
	.st3{fill:none;}
	.st4{fill:#221A3E;}
</style>
<g>
	<path class="st0" d="M79.3,7c-1.7-0.1-3.4-0.3-4.9-1.2c-1.4-0.7-2.5-1.7-4-2C68.1,3.4,65.8,4,63.5,4c-1.9,0-3.9-0.5-5.7-1.1
		c-1.9-0.6-3.6-1.2-5.4-2.1c-1.7-0.8-2.9-1.4-4.9-1.2c-2.9,0.3-5.6,1.1-8.5,1.6c-1.5,0.3-2.9,0.5-4.3,0.5l6.7,31.9
		c2.4-2.4,4.6-3.2,7.4-4.1c4.5-1.2,9.1,0.8,13.4,1.4c1.9,0.3,3.2-0.6,4.8-1.6c0.6-0.4,1.4-0.9,2.3-1.5c0.7-0.5,1.4-0.8,2-0.8
		c0.3,0,0.5,0,0.7,0.1c0.8,0.3,1.4,0.6,2.1,0.7c1.6,0.2,3.9-1.2,5.6-2.8c-2.1-1.6-1.5-4.9-0.6-6.9c0.3-0.6,1-2,1.3-2.6
		c1-1.8,0.3-2.6,0.6-4.2c0.2-1.2,0.6-1.6,0.9-2.6c0.1-0.4,0.2-0.9,0.4-1.3c0-0.1,0.2-0.9,0.3-1C81.5,6.9,80.6,7.1,79.3,7z"/>
	<g>
		<polygon class="st1" points="58.8,13.4 63.4,17.7 69.4,16.4 63.5,15.1 68,11 62.4,12.9 64.4,7.3 60.1,11.8 58.8,5.7 57.5,11.7 
			53.4,7.2 55.3,12.8 49.7,10.8 54.2,15.1 48.1,16.4 54.1,17.7 		"/>
		<polygon class="st2" points="58.8,13.4 49.7,21.7 55.2,19.9 53.2,25.5 57.5,21 58.8,27 60.1,21.1 64.2,25.6 62.3,20 67.9,22 		"/>
	</g>
</g>
<g>
	<polygon class="st3" points="122.5,67.4 6,67.4 -4.6,41.7 111.9,41.7 	"/>
	<path class="st4" d="M8.5,48.7c0.2,1.2,0.4,2.2-0.2,3.1c-0.6,0.8-2.1,0.8-3.1,0.8c-1.3,0-3.2,0-3.9-1.7c-0.2-0.4-0.3-0.8-0.4-1.3
		l-0.1-0.3h2.5c0.2,0.7,0.3,1,1.1,1c0.2,0,0.4,0,0.6,0c1.1,0,1.4-0.1,1.1-1.3l-0.4-1.7h0c-0.1,1-0.6,1.1-1.6,1.1
		c-0.8,0-1.8,0-2.6-0.4c-1-0.5-1.3-1.7-1.5-2.7c-0.6-2.9,0.8-3.2,3.2-3.2c1.6,0,3.2,0.1,4.2,2C7.7,45,7.9,45.7,8,46.6
		C8.2,47.3,8.3,48,8.5,48.7z M3.8,44.3c-0.4,0-1.2-0.1-1.3,0.4c0,0.2,0,0.5,0.1,0.7c0.1,0.3,0.1,0.7,0.4,0.9
		c0.3,0.2,1.1,0.2,1.4,0.2c0.4,0,0.7,0,1-0.3c0.2-0.2,0.1-0.6,0-0.9C5.1,44.3,4.6,44.3,3.8,44.3z"/>
	<path class="st4" d="M11,49.9l-0.5-2.3H14l0.5,2.3H11z"/>
	<path class="st4" d="M20,52.5l-1.7-7.8l-2.1,2.4l-1.8-1.7l2.9-3.1h3l2.2,10.2H20z"/>
	<path class="st4" d="M31.1,50.5l0.4,2H29l-0.4-2h-5.1l-0.6-2.9l2.6-5.3h3.9l1.3,6.2h0.8l0.4,2H31.1z M27.3,44.4L27.3,44.4l-2.2,4.1
		h3.1L27.3,44.4z"/>
	<path class="st4" d="M43,52.5l-0.9-1.8h-3.5l-0.1,1.8h-2.7l0.8-10.2h4l5.2,10.2H43z M39,44.3l-0.2,4.5h2.4L39,44.3z"/>
	<path class="st4" d="M51.2,49.8l-1.1,0c-0.7,0-1.3,0-2,0l0.6,2.6H46l-2.2-10.2h4.7c0.2,0,0.5,0,0.8,0c0.6,0,1.1,0.1,1.7,0.4
		c1.4,0.8,1.7,2.1,2,3.5C53.4,48.1,53.4,49.8,51.2,49.8z M48.9,44.5h-2l0.6,3h1.6c1.2,0,1.3-0.2,1-1.5C50,45.2,49.8,44.5,48.9,44.5z
		"/>
	<path class="st4" d="M61.7,48.1c-0.2,0.2-0.5,0.3-0.8,0.4l-0.2,0l0,0.1c1.2,0.1,1.9,0.7,2.2,2l0.4,1.9h-2.7l-0.3-1.4
		c-0.2-0.9-0.5-1.4-1.4-1.4h-2l0.6,2.7H55l-2.2-10.2h4.9c0.9,0,1.9,0,2.8,0.6c0.9,0.6,1.2,1.6,1.4,2.6
		C62.1,46.3,62.4,47.6,61.7,48.1z M58.1,44.6h-2.2l0.6,2.8h2.1c0.4,0,0.8,0,0.8-0.5c0-0.3-0.1-0.9-0.1-1.2
		C59.1,45,58.9,44.6,58.1,44.6z"/>
	<path class="st4" d="M64.4,52.5l-2.2-10.2h2.6L67,52.5H64.4z"/>
	<path class="st4" d="M68.2,52.5L66,42.2h2.6l1.7,7.9h4.1l0.5,2.4H68.2z"/>
	<path class="st4" d="M78.9,52.5l-0.5-2.3c-0.3-1.2-0.3-2.2,0.8-2.7c0.8-0.3,1.8-0.5,2.6-0.7c0.3-0.1,0.7-0.2,0.8-0.5
		c0.1-0.2,0-0.5,0-0.8c-0.1-0.6-0.3-1.1-0.9-1.1c-0.3,0-0.6,0-0.9,0c-1.2,0-1,0.6-0.8,1.6h-2.4l-0.1-0.3l0-0.2
		c-0.2-1.2-0.4-1.9,0.4-2.6c0.6-0.6,1.8-0.6,2.8-0.6c2.6,0,3.9,0.5,4.5,3.4c0.2,1.1,0.3,2.2-0.7,2.7c-0.8,0.4-1.9,0.6-2.8,0.9
		c-0.6,0.2-0.9,0.3-0.7,1l0,0.2h5.2l0.5,2.1H78.9z"/>
	<path class="st4" d="M95.1,49c0.2,1,0.3,1.9-0.2,2.7c-0.7,1-2.1,0.9-3.3,0.9c-1.1,0-2.2-0.1-3.2-0.9c-0.4-0.4-0.7-0.8-0.9-1.3
		c-0.4-0.9-0.6-2.1-0.8-3c-0.1-0.5-0.2-1.1-0.3-1.6c-0.2-1-0.3-1.9,0.2-2.7c0.7-1,2.1-0.9,3.3-0.9c1.1,0,2.2,0,3.2,0.9
		c0.4,0.4,0.7,0.8,0.9,1.3c0.4,1,0.6,2,0.8,3C94.9,47.9,95,48.4,95.1,49z M92,46.4c-0.4-1.7-0.5-2-2-2h-0.2c-0.4,0-0.8,0-1,0.4
		c-0.2,0.3,0,1.1,0.1,1.5l0.2,1.1c0.1,0.3,0.1,0.5,0.2,0.8c0.2,0.7,0.2,2,1.2,2.1c0.3,0,0.6,0,0.9,0c1.1,0,1.4-0.3,1.1-1.4
		c-0.1-0.5-0.2-1-0.3-1.5L92,46.4z"/>
	<path class="st4" d="M100.5,52.5l-1.7-7.8l-2.1,2.4l-1.8-1.7l2.9-3.1h3l2.2,10.2H100.5z"/>
	<path class="st4" d="M108.5,52.6c-1,0-2.2,0-3.2-0.7c-0.8-0.6-1.1-1.4-1.3-2.2c-0.3-1.4-0.1-2.2,1.2-2.4l0,0
		c-0.4-0.1-0.8-0.2-1.1-0.5c-0.6-0.4-0.8-1.1-1-1.8c-0.2-0.8-0.2-1.6,0.3-2.2c0.5-0.6,1.2-0.6,1.9-0.7c0.4,0,0.8,0,1.3,0
		c1,0,2.1,0,3,0.7c0.7,0.5,1,1.4,1.2,2.2c0.1,0.6,0.2,1.3-0.2,1.8c-0.2,0.3-0.6,0.4-0.9,0.5l0,0c1.5,0.2,2,1.1,2.3,2.5
		C112.7,52.5,110.6,52.6,108.5,52.6z M106.8,44.3c-0.8,0-1.2,0-1,1c0.1,0.4,0.3,1,0.8,1c0.3,0,0.7,0,1,0c0.9,0,1.1-0.1,0.9-1.1
		C108.3,44.1,107.6,44.3,106.8,44.3z M107.8,48.3c-1,0-1.5-0.1-1.2,1.1c0,0.2,0.1,0.4,0.2,0.6c0.3,0.4,1.1,0.4,1.5,0.4
		c1,0,1.5,0.1,1.2-1.1C109.3,48.2,108.7,48.3,107.8,48.3z"/>
</g>
<g>
</g>
<g>
</g>
<g>
</g>
<g>
</g>
<g>
</g>
<g>
</g>
<g>
</g>
<g>
</g>
<g>
</g>
<g>
</g>
<g>
</g>
</svg>
