<svg id="line_Image" data-name="line Image" xmlns="http://www.w3.org/2000/svg" viewBox="0 0 465.6 64.1"><defs><style>.cls-1{fill:#221a3e;}</style></defs><title>mobile-logo</title><path class="cls-1" d="M629.3,750.7a0.37,0.37,0,0,0-.1-0.3,0.2,0.2,0,0,0-.2-0.1H614.6a0.32,0.32,0,0,0-.3.3l-4.8,30.9-5.2-30.9a0.32,0.32,0,0,0-.3-0.3H593.5a0.32,0.32,0,0,0-.3.3l-5.1,30.9-4.9-30.9a0.32,0.32,0,0,0-.3-0.3H568.5c-0.1,0-.2,0-0.2.1a0.37,0.37,0,0,0-.1.3l13.4,62a0.74,0.74,0,0,0,.6.5h11a0.56,0.56,0,0,0,.6-0.5l5-26.2,5.1,26.2a0.63,0.63,0,0,0,.6.5h11a0.56,0.56,0,0,0,.6-0.5Z" transform="translate(-447.7 -749.6)"/><path class="cls-1" d="M913.3,775.6a0.43,0.43,0,0,0-.4-0.4l-20.3.1a0.43,0.43,0,0,0-.4.4v10.6a0.43,0.43,0,0,0,.4.4h8.1v10.2a3,3,0,0,1-3,3h-6.2a3,3,0,0,1-3-3l-0.1-31.6a3,3,0,0,1,3-3h6.2a3,3,0,0,1,3,3v5.8a0.43,0.43,0,0,0,.4.4h11.8a0.43,0.43,0,0,0,.4-0.4v-9.2a12.36,12.36,0,0,0-12.3-12.3H888a12.36,12.36,0,0,0-12.3,12.3l0.1,38.4a12.36,12.36,0,0,0,12.3,12.3H901a12.36,12.36,0,0,0,12.3-12.3V775.6Z" transform="translate(-447.7 -749.6)"/><path class="cls-1" d="M828.9,749.7H815.4a0.35,0.35,0,0,0-.3.4l0.2,62.3a0.45,0.45,0,0,0,.3.4h13.5a0.35,0.35,0,0,0,.3-0.4l-0.2-62.3a0.35,0.35,0,0,0-.3-0.4" transform="translate(-447.7 -749.6)"/><path class="cls-1" d="M526.3,750.5H513.5a0.35,0.35,0,0,0-.3.4l0.1,28.8-12.7-28.9a0.53,0.53,0,0,0-.3-0.2H489.1a0.35,0.35,0,0,0-.3.4l0.2,62.3a0.43,0.43,0,0,0,.4.4h12.8a0.35,0.35,0,0,0,.3-0.4l-0.1-28.8,13,28.9a0.53,0.53,0,0,0,.3.2h10.9a0.35,0.35,0,0,0,.3-0.4l-0.2-62.3a0.54,0.54,0,0,0-.4-0.4" transform="translate(-447.7 -749.6)"/><path class="cls-1" d="M871.4,749.6H858.6a0.35,0.35,0,0,0-.3.4l0.1,28.8-12.7-28.9a0.53,0.53,0,0,0-.3-0.2H834.2a0.35,0.35,0,0,0-.3.4l0.2,62.3a0.45,0.45,0,0,0,.3.4h12.8a0.35,0.35,0,0,0,.3-0.4l-0.1-28.8,13,28.9a0.53,0.53,0,0,0,.3.2h10.9a0.35,0.35,0,0,0,.3-0.4L871.7,750c0-.3-0.1-0.4-0.3-0.4" transform="translate(-447.7 -749.6)"/><path class="cls-1" d="M554.9,797.5a3.33,3.33,0,0,1-3.3,3.3h-5.1a3.33,3.33,0,0,1-3.3-3.3l-0.1-31a3.33,3.33,0,0,1,3.3-3.3h5.1a3.33,3.33,0,0,1,3.3,3.3Zm13-34.8a12.36,12.36,0,0,0-12.3-12.3H542.3A12.36,12.36,0,0,0,530,762.7l0.1,38.4a12.36,12.36,0,0,0,12.3,12.3h13.3A12.36,12.36,0,0,0,568,801.1Z" transform="translate(-447.7 -749.6)"/><path class="cls-1" d="M697.3,797.1a3.33,3.33,0,0,1-3.3,3.3h-5.1a3.33,3.33,0,0,1-3.3-3.3l-0.1-31a3.33,3.33,0,0,1,3.3-3.3h5.1a3.33,3.33,0,0,1,3.3,3.3Zm13-34.8A12.36,12.36,0,0,0,698,750H684.7a12.36,12.36,0,0,0-12.3,12.3l0.1,38.4A12.36,12.36,0,0,0,684.8,813h13.3a12.36,12.36,0,0,0,12.3-12.3Z" transform="translate(-447.7 -749.6)"/><path class="cls-1" d="M795.5,800.1h-7.9l-0.1-13.2h7.9a3,3,0,0,1,3,3l0.1,7.1a3,3,0,0,1-3,3.1m-8-37.6h7.9a3,3,0,0,1,3,3v7a3,3,0,0,1-3,3h-7.9v-13ZM811,803.3a19,19,0,0,0,.5-3.9V788.6a7.71,7.71,0,0,0-1.6-5.2,6.69,6.69,0,0,0-2.9-1.9l-0.5-.2,0.5-.2a8.6,8.6,0,0,0,2.9-1.9c0.1-.1.2-0.3,0.3-0.4a7.54,7.54,0,0,0,1.3-4.8l-0.1-10.8a19,19,0,0,0-.5-3.9,21.9,21.9,0,0,0-1.2-3.3,12.77,12.77,0,0,0-2.9-3.6,11.51,11.51,0,0,0-7.4-2.6h-0.1l-25.2.1a0.35,0.35,0,0,0-.3.4v19.2l0.1,23.8v19.2a0.45,0.45,0,0,0,.3.4l22.7-.1h2.7a10.82,10.82,0,0,0,7.3-2.7,12,12,0,0,0,4.1-6.8" transform="translate(-447.7 -749.6)"/><path class="cls-1" d="M653.4,800.5h-7.9l-0.1-13.2h7.9a3,3,0,0,1,3,3l0.1,7.1a3,3,0,0,1-3,3.1m-8.1-37.6h7.9a3,3,0,0,1,3,3v7a3,3,0,0,1-3,3h-7.9v-13Zm23.5,40.8a19,19,0,0,0,.5-3.9V789a7.71,7.71,0,0,0-1.6-5.2,6.69,6.69,0,0,0-2.9-1.9l-0.5-.2,0.5-.2a8.6,8.6,0,0,0,2.9-1.9c0.1-.1.2-0.3,0.3-0.4a8,8,0,0,0,1.3-4.8l-0.1-10.8a19,19,0,0,0-.5-3.9,21.9,21.9,0,0,0-1.2-3.3,12.77,12.77,0,0,0-2.9-3.6,11.51,11.51,0,0,0-7.4-2.6h-0.1l-25.2.1a0.35,0.35,0,0,0-.3.4v19.2l0.1,23.8v19.2a0.45,0.45,0,0,0,.3.4l22.7-.1h2.6a10.82,10.82,0,0,0,7.3-2.7,11.64,11.64,0,0,0,4.2-6.8" transform="translate(-447.7 -749.6)"/><path class="cls-1" d="M710.4,812.6a0.37,0.37,0,0,0,.1.3,0.2,0.2,0,0,0,.2.1h14.4a0.32,0.32,0,0,0,.3-0.3l4.7-30.9,5.2,30.9a0.32,0.32,0,0,0,.3.3h10.5a0.32,0.32,0,0,0,.3-0.3l5.1-30.9,4.9,30.9a0.32,0.32,0,0,0,.3.3h14.4c0.1,0,.2,0,0.2-0.1a0.37,0.37,0,0,0,.1-0.3l-13.4-62a0.74,0.74,0,0,0-.6-0.5h-11a0.56,0.56,0,0,0-.6.5l-5,26.2-5.1-26.2a0.63,0.63,0,0,0-.6-0.5h-11a0.56,0.56,0,0,0-.6.5Z" transform="translate(-447.7 -749.6)"/><path class="cls-1" d="M485.5,791v-0.7l-0.3-3.3a11,11,0,0,0-3.8-6.5,14.49,14.49,0,0,0-8.6-3.3c-0.1,0-1.7-.1-3.5-0.3-3.3-.3-5.9-0.5-5.9-0.5a2.65,2.65,0,0,1-2.6-2.6v-7a3.33,3.33,0,0,1,3.3-3.3h5.1a3.33,3.33,0,0,1,3.3,3.3v5.5a0.43,0.43,0,0,0,.4.4h12.3a0.43,0.43,0,0,0,.4-0.4v-9.4a12.34,12.34,0,0,0-12.3-12.2H460A12.29,12.29,0,0,0,447.7,763v11.9a21.33,21.33,0,0,0,.3,3.7,10.71,10.71,0,0,0,3.8,6.5,10.94,10.94,0,0,0,4,2.1,18.49,18.49,0,0,0,4.5.7c0.1,0,2.7.1,5.1,0.3l4,0.2a2.89,2.89,0,0,1,3.1,3.1v6.3a3.33,3.33,0,0,1-3.3,3.3h-5.1a3.33,3.33,0,0,1-3.3-3.3v-5.1a0.43,0.43,0,0,0-.4-0.4H448.2a0.43,0.43,0,0,0-.4.4v8.8a12.34,12.34,0,0,0,12.3,12.2h13.3a12.29,12.29,0,0,0,12.3-12.3Z" transform="translate(-447.7 -749.6)"/></svg>