<svg id="Layer_1" data-name="Layer 1" xmlns="http://www.w3.org/2000/svg" viewBox="0 0 508.45 194.74"><defs><style>.cls-1{fill:#665aa7;}.cls-2{fill:#fff;}</style></defs><title>sb-royal</title><polygon class="cls-1" points="508.45 156.47 92.5 156.47 70.81 59.5 508.45 59.5 508.45 156.47"/><path class="cls-2" d="M212,189.41c10.87,0.79,13.31,2.19,11.5,10.74-1.31,6.17-2.35,12.24-18.76,12.24-9.5,0-15.77-.2-13.18-12.44h9.55c-0.82,3.88.48,4.28,5.36,4.28,4.68,0,6.28-.3,6.95-3.43s0.13-3.18-4.48-3.48l-2.16-.15c-9.07-.64-14.45-0.6-12.18-11.29s8.44-11.39,18.18-11.39c8.16,0,15.09.15,12.9,10.45l-0.33,1.54h-9.55c0.82-3.83-.78-3.83-4.76-3.83-5.37,0-6.05,1.09-6.5,3.19-0.63,3,.79,3.08,3.38,3.28Z" transform="translate(-51.88 -86.24)"/><path class="cls-2" d="M232.35,174.78h19.6c7.41,0,11.49,1.39,9.76,9.55-1,4.72-2.6,7.81-7.7,8.6l-0.08.4c5.45,0.35,5.68,3.68,4.69,8.35-1.94,9.15-6.48,10.4-14.39,10.4h-19.8Zm3.76,29.15h7.51c3.23,0,4.73-.75,5.38-3.78s-0.39-3.53-3.63-3.53h-7.71Zm3-14.23h7.16c3.48,0,4.45-.6,5.09-3.58,0.47-2.24.31-3.08-2.46-3.18h-8.36Z" transform="translate(-51.88 -86.24)"/><path class="cls-2" d="M284.24,174.78h19.2c8.58,0.15,12.41,2,10.44,11.29-1.32,6.22-2.09,9.85-9.5,11.49l-0.08.4c4,0.15,6.21,2.38,5.31,6.61l-1.6,7.51h-9.95l1.11-5.22c0.69-2.79-.1-4.68-3.09-4.68h-7.71l-2.1,9.9h-9.95Zm13.68,18.75c4.28,0,4.46-1.59,5.36-5.82,0.71-3.34.06-4.28-3.22-4.28h-7.71l-2.14,10.1h7.71Z" transform="translate(-51.88 -86.24)"/><path class="cls-2" d="M313.6,198.7l2.24-10.55c2.44-11.49,10.07-13.68,20.16-13.68s16.8,2.19,14.35,13.68l-2.24,10.55c-2.44,11.49-10.07,13.68-20.16,13.68S311.15,210.19,313.6,198.7Zm24.5-1.09,1.79-8.41c1.17-5.52-.55-6.07-5.72-6.07s-7,.55-8.3,6.07l-1.79,8.41c-1,5.57.55,6.12,5.72,6.12S336.92,203.18,338.1,197.61Z" transform="translate(-51.88 -86.24)"/><path class="cls-2" d="M370.79,199L368,212.08h-9.95L360.85,199l-8.09-24.22h11.39l3.61,14.38h0.35L378,174.78h11.54Z" transform="translate(-51.88 -86.24)"/><path class="cls-2" d="M388.83,205.67l-3.2,6.41H375.29l19.11-37.3h15.13l3.42,37.3H402.79l-0.58-6.41H388.83Zm11.74-23.43h-0.1l-8,16.17h9.25Z" transform="translate(-51.88 -86.24)"/><path class="cls-2" d="M425.73,203.43H441.3l-1.84,8.65H413.94l7.93-37.3h9.94Z" transform="translate(-51.88 -86.24)"/><path class="cls-2" d="M455,212.08H445.1l6.09-28.65h-9.55l1.84-8.65H473l-1.84,8.65h-10Z" transform="translate(-51.88 -86.24)"/><path class="cls-2" d="M489,199l-2.78,13.08h-9.95L479,199l-8.09-24.22h11.39l3.61,14.38h0.35l9.92-14.37h11.54Z" transform="translate(-51.88 -86.24)"/><polygon class="cls-1" points="83.3 167.95 67.6 97.78 0 97.78 57.41 146.26 21.69 194.74 150.22 194.74 144.49 167.95 83.3 167.95"/><path class="cls-2" d="M190.12,141.74a3.76,3.76,0,0,1-1.38,5.14L120.06,186.4a3.76,3.76,0,0,1-5.14-1.38h0a3.77,3.77,0,0,1,1.39-5.14L185,140.35a3.77,3.77,0,0,1,5.14,1.38h0Z" transform="translate(-51.88 -86.24)"/><polygon class="cls-2" points="131.26 49.62 111.74 0 111.72 30.43 90.97 11.95 93.74 40.79 70.2 23.91 72.96 52.74 49.42 35.85 54.96 63.09 28.65 47.81 61.74 89.62 131.26 49.62"/></svg>